<?xml version="1.0" ?><svg id="Layer_1" style="enable-background:new 0 0 515 515;" version="1.1" viewBox="0 0 515 515" xml:space="preserve" xmlns="http://www.w3.org/2000/svg" xmlns:xlink="http://www.w3.org/1999/xlink"><title/><g id="Layer_2"><g id="Layer_1-2" ><path d="M215.7,261.1H230v86.5c0,1.9,1.6,3.5,3.5,3.5h37.4c1.9,0,3.5-1.6,3.5-3.5v-86.5h21.7c1.8,0,3.3-1.4,3.5-3.1l3.3-31.8    c0.2-1.9-1.2-3.6-3.1-3.8c-0.1,0-0.2,0-0.4,0h-25v-15.2c0-1,0.1-2,0.5-2.9c0.4-0.9,1.1-1.6,2.1-1.9c0.6-0.2,1.2-0.3,1.8-0.3h20.1    c1.9,0,3.5-1.6,3.5-3.5v-30.8c0-1.9-1.6-3.5-3.5-3.5l-27.7-0.1l0,0c-7-0.2-14,1.3-20.4,4.2c-3.9,1.8-7.4,4.4-10.3,7.5    c-3.9,4.2-6.7,9.3-8.4,14.8c-1.5,4.8-2.2,9.7-2.2,14.7v17.1h-14.3c-1.9,0-3.5,1.6-3.5,3.5v31.8    C212.2,259.5,213.7,261.1,215.7,261.1L215.7,261.1z" fill="#ad9970"/><path d="M257.5,465.8c115.2,0.1,208.6-93.1,208.8-208.3S373.1,48.9,258,48.7S49.3,141.9,49.2,257c-0.1,55.4,21.9,108.5,61.1,147.7    C149.3,443.9,202.3,465.8,257.5,465.8z M257.5,70.1c103.6-0.1,187.7,83.9,187.8,187.5c0.1,103.6-83.9,187.7-187.5,187.8    C154.2,445.4,70.1,361.5,70,257.9c0-49.8,19.7-97.6,55-132.9C160.1,89.8,207.8,70,257.5,70.1L257.5,70.1z" fill="#ad9970"/></g></g></svg>