<?xml version="1.0" encoding="utf-8"?>
<!-- Generator: Adobe Illustrator 19.0.0, SVG Export Plug-In . SVG Version: 6.00 Build 0)  -->
<svg version="1.1" id="Layer_1" xmlns="http://www.w3.org/2000/svg" xmlns:xlink="http://www.w3.org/1999/xlink" x="0px" y="0px"
	 viewBox="0 0 512 512" style="enable-background:new 0 0 512 512;" xml:space="preserve">
<g id="XMLID_1_">
	<circle id="XMLID_3_" cx="254.1" cy="257.9" r="45.6"/>
	<path id="XMLID_7_" d="M310.9,146.2H196.4c-16.8,0-31.7,5.6-41,14.9c-9.3,9.3-14.9,24.2-14.9,41v114.5c0,16.8,5.6,31.7,15.8,41.9
		c10.2,9.3,24.2,14.9,41,14.9h113.6c16.8,0,31.7-5.6,41-14.9c10.2-9.3,15.8-24.2,15.8-41V202c0-16.8-5.6-29.8-14.9-41
		C342.6,150.8,328.6,146.2,310.9,146.2z M254.1,328.6c-39.1,0-70.7-32.6-70.7-70.7c0-39.1,32.6-70.7,70.7-70.7s71.7,31.7,71.7,70.7
		S293.2,328.6,254.1,328.6z M327.7,201.1c-9.3,0-16.8-7.4-16.8-16.8s7.4-16.8,16.8-16.8s16.8,7.4,16.8,16.8S337,201.1,327.7,201.1z"
		fill="#ad9970"/>
	<path id="XMLID_10_" d="M256,0C114.5,0,0,114.5,0,256s114.5,256,256,256s256-114.5,256-256C512.9,114.5,397.5,0,256,0z
		 M391.9,316.5c0,24.2-8.4,44.7-23.3,59.6c-14.9,14.9-35.4,21.4-58.6,21.4H197.3c-23.3,0-43.8-7.4-58.6-21.4
		c-15.8-14.9-23.3-35.4-23.3-59.6V202c0-47.5,32.6-81,81-81h115.4c24.2,0,43.8,8.4,58.6,23.3s21.4,34.4,21.4,58.6V316.5z" fill="#ad9970"/>
</g>
</svg>
