<?xml version="1.0" encoding="utf-8"?>
<!-- Svg Vector Icons : http://www.onlinewebfonts.com/icon -->
<!DOCTYPE svg PUBLIC "-//W3C//DTD SVG 1.1//EN" "http://www.w3.org/Graphics/SVG/1.1/DTD/svg11.dtd">
<svg version="1.1" xmlns="http://www.w3.org/2000/svg" xmlns:xlink="http://www.w3.org/1999/xlink" x="0px" y="0px" viewBox="0 0 1000 1000" enable-background="new 0 0 1000 1000" xml:space="preserve">
<metadata> Svg Vector Icons : http://www.onlinewebfonts.com/icon </metadata>
<g><path d="M990,785.8v81.7c0,11.1-4,20.6-12.1,28.7c-8.1,8.1-17.7,12.1-28.7,12.1H50.8c-11.1,0-20.6-4-28.7-12.1C14,888.1,10,878.6,10,867.5v-81.7c0-11.1,4-20.6,12.1-28.7C30.2,749,39.8,745,50.8,745h898.3c11.1,0,20.6,4,28.7,12.1C986,765.2,990,774.8,990,785.8z M990,459.2v81.7c0,11.1-4,20.6-12.1,28.7c-8.1,8.1-17.7,12.1-28.7,12.1H50.8c-11.1,0-20.6-4-28.7-12.1C14,561.5,10,551.9,10,540.8v-81.7c0-11.1,4-20.6,12.1-28.7c8.1-8.1,17.7-12.1,28.7-12.1h898.3c11.1,0,20.6,4,28.7,12.1C986,438.5,990,448.1,990,459.2z M990,132.5v81.7c0,11.1-4,20.6-12.1,28.7c-8.1,8.1-17.7,12.1-28.7,12.1H50.8c-11.1,0-20.6-4-28.7-12.1C14,234.8,10,225.2,10,214.2v-81.7c0-11.1,4-20.6,12.1-28.7c8.1-8.1,17.7-12.1,28.7-12.1h898.3c11.1,0,20.6,4,28.7,12.1C986,111.9,990,121.4,990,132.5z"/></g>
</svg>