<svg id="Layer_1" data-name="Layer 1" xmlns="http://www.w3.org/2000/svg" viewBox="0 0 1200 77"><defs><style>.cls-1{fill:#fff;}</style></defs><path class="cls-1" d="M160.76,10.9h9.82V66.1h-9.82Z"/><path class="cls-1" d="M184.22,10.9h13l26.74,41h.15v-41H234V66.1H221.48L194.2,23.77H194V66.1h-9.82Z"/><path class="cls-1" d="M259.14,19.79H242.22V10.9h43.66v8.89H269V66.1h-9.82Z"/><path class="cls-1" d="M294.14,10.9H330.7v8.89H304V33.35H329.3v8.89H304v15H332.1V66.1h-38Z"/><path class="cls-1" d="M343.33,10.9h19.18a39.2,39.2,0,0,1,7.67.74,19.68,19.68,0,0,1,6.59,2.54,13.18,13.18,0,0,1,4.6,4.83,15.61,15.61,0,0,1,1.72,7.72,15.4,15.4,0,0,1-3.32,10.06,14.2,14.2,0,0,1-9.47,4.91L385,66.1H373.11L360.32,42.71h-7.17V66.1h-9.82Zm17.46,23.39c1.4,0,2.81-.06,4.21-.19a13.08,13.08,0,0,0,3.86-.94,6.6,6.6,0,0,0,2.85-2.26,7.24,7.24,0,0,0,1.09-4.25,6.76,6.76,0,0,0-1-3.9,6.37,6.37,0,0,0-2.65-2.22,12.13,12.13,0,0,0-3.62-1,32.24,32.24,0,0,0-3.86-.24h-8.5v15Z"/><path class="cls-1" d="M394,10.9h35.63v8.89H403.82v14.5h24.32v8.89H403.82V66.1H394Z"/><path class="cls-1" d="M453.87,10.9h8.5l23.78,55.2H474.92l-5.15-12.63H445.84l-5,12.63h-11Zm12.47,34.15L457.85,22.6l-8.66,22.45Z"/><path class="cls-1" d="M531.75,23.84a16.5,16.5,0,0,0-5.89-4.36,15.78,15.78,0,0,0-5.73-1.09,19,19,0,0,0-7.75,1.52,17.63,17.63,0,0,0-6,4.21,19.13,19.13,0,0,0-3.86,6.27,21.54,21.54,0,0,0-1.36,7.72,23.78,23.78,0,0,0,1.36,8.19,19.34,19.34,0,0,0,3.86,6.47,17.81,17.81,0,0,0,6,4.28,18.66,18.66,0,0,0,7.75,1.56A14.28,14.28,0,0,0,526.64,57a17.79,17.79,0,0,0,5.89-5.11l8.11,5.77a22.15,22.15,0,0,1-9.12,7.48,28.44,28.44,0,0,1-11.46,2.34,32.21,32.21,0,0,1-11.74-2.07,26.26,26.26,0,0,1-15.24-14.92,30.78,30.78,0,0,1-2.18-11.78,32.06,32.06,0,0,1,2.18-12,27.19,27.19,0,0,1,6-9.24,26.53,26.53,0,0,1,9.2-5.88A32.21,32.21,0,0,1,520.06,9.5a26.77,26.77,0,0,1,10.4,2,24.22,24.22,0,0,1,8.93,6.74Z"/><path class="cls-1" d="M548.82,10.9h36.56v8.89H558.64V33.35H584v8.89H558.64v15h28.15V66.1h-38Z"/><path class="cls-1" d="M625.06,22.75a9.1,9.1,0,0,0-4.17-3.31,14.57,14.57,0,0,0-5.49-1.05,14,14,0,0,0-3.32.39A9.07,9.07,0,0,0,609.2,20a6.6,6.6,0,0,0-2.07,2.23,6.38,6.38,0,0,0-.78,3.23,5.07,5.07,0,0,0,1.95,4.29,19.1,19.1,0,0,0,4.84,2.57q2.88,1.09,6.31,2.11a25.51,25.51,0,0,1,6.31,2.8A15.58,15.58,0,0,1,630.6,42a14.11,14.11,0,0,1,1.95,7.87,17.36,17.36,0,0,1-1.64,7.76,15.75,15.75,0,0,1-4.4,5.49,19,19,0,0,1-6.44,3.28,26.76,26.76,0,0,1-7.71,1.09,29,29,0,0,1-9.9-1.71A19.19,19.19,0,0,1,594.27,60l7.41-7.18a12.29,12.29,0,0,0,4.71,4.25,13.19,13.19,0,0,0,6.2,1.52,13,13,0,0,0,3.43-.46,10.78,10.78,0,0,0,3.12-1.41,7.25,7.25,0,0,0,2.26-2.38,6.35,6.35,0,0,0,.86-3.31,5.78,5.78,0,0,0-2-4.68,17.11,17.11,0,0,0-4.84-2.76c-1.92-.76-4-1.47-6.31-2.15a26.45,26.45,0,0,1-6.32-2.77A15.25,15.25,0,0,1,598,34a13.94,13.94,0,0,1-2-7.84,14.87,14.87,0,0,1,1.76-7.4,16.05,16.05,0,0,1,4.6-5.19,20.18,20.18,0,0,1,6.51-3.08,28.11,28.11,0,0,1,7.48-1,27.12,27.12,0,0,1,8.46,1.33,19.45,19.45,0,0,1,7.36,4.36Z"/><path class="cls-1" d="M707.54,53.08l11.93,13H707.38l-5.84-6.32a22.58,22.58,0,0,1-7.17,5.85,20.54,20.54,0,0,1-9.13,1.87,23.69,23.69,0,0,1-7-1,17.75,17.75,0,0,1-6-3.12,15.71,15.71,0,0,1-4.14-5.07,14.89,14.89,0,0,1-1.56-7,14.13,14.13,0,0,1,.94-5.19A16.67,16.67,0,0,1,670,41.74a18.08,18.08,0,0,1,3.78-3.51,21.34,21.34,0,0,1,4.68-2.46c-.88-1-1.7-2-2.45-2.88A22.23,22.23,0,0,1,674,30a14.69,14.69,0,0,1-1.37-3.19,13.48,13.48,0,0,1-.5-3.74,13.17,13.17,0,0,1,1.28-5.93,12.24,12.24,0,0,1,3.47-4.25A15.47,15.47,0,0,1,682,10.36a21,21,0,0,1,6-.86,22.06,22.06,0,0,1,5.93.78,14.77,14.77,0,0,1,5,2.38,11.7,11.7,0,0,1,3.43,4.09,12.68,12.68,0,0,1,1.28,5.85,11.71,11.71,0,0,1-.93,4.71,14.58,14.58,0,0,1-2.5,3.9,22.16,22.16,0,0,1-3.54,3.2,28.66,28.66,0,0,1-4,2.45l8.89,9.59,6.16-9.35h11ZM684.39,41.31c-.94.57-1.85,1.15-2.73,1.75a16.23,16.23,0,0,0-2.42,2,8.83,8.83,0,0,0-1.75,2.49,7.44,7.44,0,0,0-.67,3.2,8,8,0,0,0,.71,3.35,7.64,7.64,0,0,0,1.91,2.65,8.95,8.95,0,0,0,6.12,2.34,9.46,9.46,0,0,0,5.61-1.71,38.94,38.94,0,0,0,4.52-3.75Zm3.74-23.39a7.4,7.4,0,0,0-4.68,1.52,4.84,4.84,0,0,0-2,4A5.27,5.27,0,0,0,682,25.6a11.05,11.05,0,0,0,1.25,2.1,21.44,21.44,0,0,0,1.67,2c.6.63,1.21,1.22,1.84,1.79q1.17-.61,2.49-1.44a16,16,0,0,0,2.46-1.87,9.65,9.65,0,0,0,1.83-2.3,5.6,5.6,0,0,0,.7-2.8,4.56,4.56,0,0,0-1.79-3.71A6.66,6.66,0,0,0,688.13,17.92Z"/><path class="cls-1" d="M753.14,10.9h15l14.74,38.67L797.74,10.9h14.81V66.1h-9.36V20.26H803L786.28,66.1h-6.86L762.65,20.26h-.15V66.1h-9.36Z"/><path class="cls-1" d="M826.42,10.9h9.83V66.1h-9.83Z"/><path class="cls-1" d="M863.37,37.25,845,10.9h12.39l13,20.43L883.25,10.9h11.93L877.1,37.25l20,28.85H884.66L870.08,42.79,855.58,66.1H843.73Z"/><path class="cls-1" d="M904.85,10.9h36.56v8.89H914.67V33.35H940v8.89H914.67v15h28.14V66.1h-38Z"/><path class="cls-1" d="M954,10.9h19.18a39.2,39.2,0,0,1,7.67.74,19.68,19.68,0,0,1,6.59,2.54,13.18,13.18,0,0,1,4.6,4.83,15.61,15.61,0,0,1,1.72,7.72,15.4,15.4,0,0,1-3.32,10.06A14.2,14.2,0,0,1,981,41.7l14.66,24.4H983.82L971,42.71h-7.17V66.1H954ZM971.5,34.29c1.4,0,2.81-.06,4.21-.19a13.08,13.08,0,0,0,3.86-.94,6.6,6.6,0,0,0,2.85-2.26,7.24,7.24,0,0,0,1.09-4.25,6.76,6.76,0,0,0-1-3.9,6.37,6.37,0,0,0-2.65-2.22,12.13,12.13,0,0,0-3.62-1,32.24,32.24,0,0,0-3.86-.24h-8.5v15Z"/><path class="cls-1" d="M1031.76,22.75a9.1,9.1,0,0,0-4.17-3.31,14.59,14.59,0,0,0-5.5-1.05,14,14,0,0,0-3.31.39A9,9,0,0,0,1015.9,20a6.6,6.6,0,0,0-2.07,2.23,6.38,6.38,0,0,0-.78,3.23,5.07,5.07,0,0,0,2,4.29,19.19,19.19,0,0,0,4.83,2.57c1.93.73,4,1.43,6.32,2.11a25.68,25.68,0,0,1,6.31,2.8A15.69,15.69,0,0,1,1037.3,42a14.19,14.19,0,0,1,1.94,7.87,17.36,17.36,0,0,1-1.63,7.76,15.67,15.67,0,0,1-4.41,5.49,19,19,0,0,1-6.43,3.28,26.78,26.78,0,0,1-7.72,1.09,29,29,0,0,1-9.9-1.71A19.1,19.1,0,0,1,1001,60l7.4-7.18a12.39,12.39,0,0,0,4.72,4.25,13.27,13.27,0,0,0,9.63,1.06,10.78,10.78,0,0,0,3.12-1.41,7.35,7.35,0,0,0,2.26-2.38,6.35,6.35,0,0,0,.86-3.31,5.81,5.81,0,0,0-2-4.68,17.25,17.25,0,0,0-4.84-2.76c-1.92-.76-4-1.47-6.31-2.15a26.45,26.45,0,0,1-6.32-2.77,15.25,15.25,0,0,1-4.83-4.67,13.94,13.94,0,0,1-2-7.84,14.87,14.87,0,0,1,1.76-7.4,16,16,0,0,1,4.59-5.19,20.38,20.38,0,0,1,6.51-3.08,28.24,28.24,0,0,1,7.49-1,27.12,27.12,0,0,1,8.46,1.33,19.52,19.52,0,0,1,7.36,4.36Z"/></svg>